# xmcd CD database file
#
# Track frame offsets:
#	150
#	20493
#	41171
#	61459
#	85035
#	102808
#	122166
#	142422
#	162650
#	182419
#	204702
#
# Disc length: 3018 seconds
#
# Revision: 1
# Processed by: cddbd v1.5.1PL2 Copyright (c) Steve Scherf et al.
# Submitted via: CDex 1.51
#
DISCID=9f0bc80b
DTITLE=Jeff Lorber - Midnight
DYEAR=1998
DGENRE=Jazz
TTITLE0=Jeff Lorber - Feel'in It
TTITLE1=Jeff Lorber - I Ain't Thinkin' About
TTITLE2=Jeff Lorber - Mignight
TTITLE3=Jeff Lorber - Never
TTITLE4=\Jeff Lorber - Perugia
TTITLE5=Jeff Lorber - The Simple Life
TTITLE6=Jeff Lorber - The Wild East
TTITLE7=Jeff Lorber - Watching The Sun Set
TTITLE8=Jeff Lorber - A Walk In The Park
TTITLE9=Jeff Lorber - Dear Prudence
TTITLE10=Jeff Lorber - Down Low
EXTD=YEAR: 1998
EXTT0=
EXTT1=
EXTT2=
EXTT3=
EXTT4=
EXTT5=
EXTT6=
EXTT7=
EXTT8=
EXTT9=
EXTT10=
PLAYORDER=
